<svg version="1.0" xmlns="http://www.w3.org/2000/svg"
 width="1024.000000pt" height="1024.000000pt" viewBox="0 0 1024.000000 1024.000000"
 preserveAspectRatio="xMidYMid meet">

<g transform="translate(0.000000,1024.000000) scale(0.100000,-0.100000)"
fill="#000000" stroke="none">
<path d="M4885 10233 c-1151 -56 -2225 -486 -3098 -1238 -164 -141 -454 -434
-576 -580 -682 -821 -1077 -1756 -1186 -2805 -8 -80 -18 -248 -21 -375 -44
-1625 692 -3171 1988 -4172 1428 -1104 3350 -1369 5030 -692 486 195 954 477
1378 828 148 122 519 493 641 641 643 776 1034 1672 1158 2650 165 1300 -181
2618 -964 3675 -149 201 -286 358 -499 571 -410 409 -801 694 -1301 949 -780
397 -1683 591 -2550 548z m475 -2223 c545 -32 1001 -190 1494 -517 251 -167
344 -275 361 -421 21 -179 -128 -466 -365 -702 -136 -137 -270 -210 -385 -210
-91 0 -245 67 -442 191 -196 123 -337 181 -538 221 -89 18 -145 22 -300 22
-286 1 -456 -38 -700 -159 -171 -85 -294 -174 -435 -315 -211 -209 -327 -424
-392 -722 -26 -121 -36 -434 -18 -575 26 -213 106 -450 208 -615 85 -139 134
-201 277 -344 204 -204 409 -334 644 -408 148 -47 249 -60 451 -60 263 0 516
42 705 117 l60 23 0 435 0 434 -420 5 c-399 6 -423 7 -487 28 -45 15 -82 36
-116 67 -98 88 -125 192 -125 485 0 354 49 479 209 540 135 50 148 51 1065 48
845 -3 855 -4 932 -25 198 -56 276 -136 329 -335 22 -82 22 -91 26 -1098 2
-737 0 -1031 -8 -1075 -35 -179 -145 -338 -358 -515 -352 -294 -789 -465
-1372 -537 -208 -25 -725 -25 -895 0 -682 102 -1266 421 -1752 956 -443 488
-693 1025 -780 1676 -24 184 -24 650 0 825 81 579 281 1039 635 1460 102 122
329 342 457 445 499 400 1083 622 1715 655 80 4 150 7 155 8 6 1 80 -3 165 -8z"/>
</g>
</svg>
